<svg xmlns="http://www.w3.org/2000/svg" width="40" height="40" fill="none"><g clip-path="url(#a)"><path fill="url(#b)" d="M23.828 24.187a11.25 11.25 0 1 0-13.906 0 19.375 19.375 0 0 0-7.608 5.586 1.876 1.876 0 0 0 2.872 2.412c3.023-3.598 7.175-5.58 11.689-5.58 5.781 0 9.55 3.034 11.69 5.58a1.875 1.875 0 1 0 2.87-2.412 19.375 19.375 0 0 0-7.607-5.586ZM9.375 15.354a7.5 7.5 0 1 1 7.5 7.5 7.508 7.508 0 0 1-7.5-7.5Zm28.552 6.442-.518.169.313.44a1.875 1.875 0 1 1-3.033 2.204l-.314-.44-.313.44a1.876 1.876 0 1 1-3.032-2.203l.312-.441-.517-.169a1.875 1.875 0 0 1 1.16-3.565l.517.167v-.544a1.875 1.875 0 1 1 3.75 0v.544l.517-.167a1.875 1.875 0 0 1 1.16 3.565h-.002Z"/></g><defs><linearGradient id="b" x1="20.533" x2="20.533" y1="4.093" y2="32.855" gradientUnits="userSpaceOnUse"><stop stop-color="#E40054"/><stop offset="1" stop-color="#F36E26"/></linearGradient><clipPath id="a"><path fill="#fff" d="M0 0h40v40H0z"/></clipPath></defs></svg>
