<svg xmlns="http://www.w3.org/2000/svg" width="40" height="40" fill="none"><g clip-path="url(#a)"><path fill="url(#b)" d="M36.622 32.813a19.275 19.275 0 0 0-9.497-8.318 11.876 11.876 0 1 0-14.25 0 19.275 19.275 0 0 0-9.497 8.317 1.875 1.875 0 1 0 3.245 1.876c2.832-4.894 7.832-7.813 13.377-7.813 5.545 0 10.545 2.92 13.377 7.813a1.875 1.875 0 0 0 3.245-1.876ZM11.875 15A8.125 8.125 0 1 1 20 23.125 8.134 8.134 0 0 1 11.875 15Z"/></g><defs><linearGradient id="b" x1="19.97" x2="19.97" y1="3.12" y2="35.678" gradientUnits="userSpaceOnUse"><stop stop-color="#E40054"/><stop offset="1" stop-color="#F36E26"/></linearGradient><clipPath id="a"><path fill="#fff" d="M0 0h40v40H0z"/></clipPath></defs></svg>
