<svg xmlns="http://www.w3.org/2000/svg" width="40" height="40" fill="none"><g clip-path="url(#a)"><path fill="url(#b)" d="M38.25 23.5a1.251 1.251 0 0 1-1.75-.25A8.063 8.063 0 0 0 30 20a1.25 1.25 0 0 1 0-2.5 3.75 3.75 0 1 0-3.631-4.688 1.251 1.251 0 1 1-2.422-.624 6.25 6.25 0 1 1 10.272 6.173c1.7.736 3.177 1.904 4.286 3.387a1.252 1.252 0 0 1-.255 1.752Zm-8.419 9.625a1.25 1.25 0 1 1-2.162 1.25 8.906 8.906 0 0 0-15.338 0 1.248 1.248 0 0 1-2.107.17 1.249 1.249 0 0 1-.055-1.42 11.26 11.26 0 0 1 5.272-4.675 7.5 7.5 0 1 1 9.118 0 11.26 11.26 0 0 1 5.272 4.675ZM20 27.5a5 5 0 1 0 0-10 5 5 0 0 0 0 10Zm-8.75-8.75A1.25 1.25 0 0 0 10 17.5a3.75 3.75 0 1 1 3.631-4.688 1.25 1.25 0 0 0 2.422-.624A6.25 6.25 0 1 0 5.781 18.36 10.616 10.616 0 0 0 1.5 21.748a1.251 1.251 0 0 0 2 1.502A8.063 8.063 0 0 1 10 20a1.25 1.25 0 0 0 1.25-1.25Z"/></g><defs><linearGradient id="b" x1="20.002" x2="20.002" y1="7.501" y2="35.046" gradientUnits="userSpaceOnUse"><stop stop-color="#E40054"/><stop offset="1" stop-color="#F36E26"/></linearGradient><clipPath id="a"><path fill="#fff" d="M0 0h40v40H0z"/></clipPath></defs></svg>
