<svg xmlns="http://www.w3.org/2000/svg" width="32" height="32" fill="none"><path fill="#000" d="M10.667 28c-.378 0-.695-.128-.951-.384a1.285 1.285 0 0 1-.383-.95V24H8c-.378 0-.695-.128-.95-.384a1.285 1.285 0 0 1-.383-.95c0-.377.128-.694.384-.95s.572-.384.949-.383h1.333v-2.666H8c-.378 0-.695-.128-.95-.384a1.285 1.285 0 0 1-.383-.95c0-.377.128-.694.384-.95S7.623 15.999 8 16h1.333V5.333c0-.377.128-.694.384-.95s.573-.384.95-.383H18c2.044 0 3.778.711 5.2 2.133 1.422 1.423 2.133 3.156 2.133 5.2 0 2.045-.71 3.778-2.133 5.2-1.422 1.423-3.156 2.134-5.2 2.134h-6v2.666h4c.378 0 .695.128.95.384.257.256.384.573.383.95 0 .377-.128.694-.384.95A1.285 1.285 0 0 1 16 24h-4v2.667c0 .377-.128.694-.384.95a1.285 1.285 0 0 1-.95.383ZM12 16h6c1.289 0 2.389-.456 3.3-1.367.911-.91 1.367-2.01 1.367-3.3 0-1.289-.456-2.389-1.367-3.3-.911-.91-2.011-1.366-3.3-1.366h-6V16Z"/></svg>
